<?xml version="1.0" encoding="UTF-8" standalone="no"?>
<!DOCTYPE svg PUBLIC "-//W3C//DTD SVG 1.1//EN" 
  "http://www.w3.org/Graphics/SVG/1.1/DTD/svg11.dtd">
<svg
   version="1.1"
   id="humanBodyFront"
   width="415"
   height="1010"
   viewBox="0 0 415 1010"
   xmlns="http://www.w3.org/2000/svg"
   xmlns:svg="http://www.w3.org/2000/svg">
  
  <path
      style="display:inline;fill:#7b5427;fill-opacity:1;stroke-width:1.0"
      d="m 297.84,175.14 c -23.87,-7.51 -47.82,-14.85 -68.34,-30.73 -0.21,-6.8 -0.43,-13.61 -0.64,-20.41 1.7,-6.65 1.12,-14.82 9.24,-17.19 15.78,-29.27 10.85,-37.68 -0.86,-33.74 17.72,-72.59 -93.99,-85.63 -82.52,-0.64 -14.08,-2.57 -7.59,32.29 5.8,36.75 3.34,8.58 3.74,19.5 4.3,30.3 -19.57,21.04 -43.38,26.97 -66.83,34.17 58.87,20.28 135.09,14.57 199.85,1.5 z"
      id="Head"/>
  <path
      style="fill:#a10101;fill-opacity:1;stroke-width:1.0"
      d="m 247.13,186.1 c 16.47,11.57 32.76,23.78 46.42,44.91 -15,19.73 -16.6,42.53 -11.6,66.83 -1.05,24.08 -6.75,46.6 -10.96,69.63 5.08,19.87 8.87,37.81 6.02,45.77 -8.35,13.68 -20.42,25.04 -33.31,35.89 -7.75,11.6 -14.38,23.21 -20.41,34.81 l -19.77,16.33 -13.11,-0.21 c -7.98,-4.99 -15.52,-11.71 -22.35,-21.27 -9.24,-15.6 -18.37,-31.03 -14.18,-25.36 -8.27,-10.29 -17.3,-20.08 -27.29,-29.23 -8.4,-3.14 -12.29,-10.12 -9.24,-22.99 l 6.23,-32.45 -11.39,-70.06 c 0.43,-12.97 0.9,-25.93 0.21,-38.9 -4.79,-15.66 -10.12,-22.26 -15.47,-28.37 6.26,-11.91 21.29,-27.43 49.86,-44.48 z"
      id="Torso"/>
  <path
      style="fill:#12a101;fill-opacity:1;stroke-width:1.0"
      d="m 298.92,175.57 c 12.67,7.02 19.38,18.73 24.07,32.02 8.7,32.19 3.08,47.8 1.72,68.34 l 6.88,58.02 c 11.46,20.12 21.67,40.85 21.27,66.62 l 3.22,54.58 7.95,45.13 -31.8,2.15 -0.64,-9.24 -15.9,-42.33 c -10.87,-23.31 -18.28,-47.68 -21.7,-73.28 l 0.86,-25.36 -10.96,-46.63 c -4.26,-26.61 -6.2,-51.68 10.96,-73.71 -12.56,-21.78 -30.09,-32.92 -46.42,-46.63 z"
      id="LeftArm"/>
  <path
      style="fill:#12a101;fill-opacity:1;stroke-width:1.0"
      d="m 96.06,174.49 c -13.45,5.01 -19.94,15.24 -24.28,27.08 -10.77,29.24 -4.74,53.36 -3.22,78.87 -3.71,13.34 -4.16,33.22 -6.23,49.86 L 45.77,373.27 c -2.93,20.1 -3.95,41.15 -3.44,62.96 l -7.52,64.25 27.72,0.43 11.82,-39.76 c 10.85,-23.01 20.94,-47.74 25.57,-84.88 l -0.64,-24.93 9.89,-49.21 c 6.1,-31.65 3.05,-56.44 -13.75,-70.91 3.83,-10.01 22.48,-26.84 49.21,-44.91 z"
      id="RightArm"/>
  <path
      style="fill:#a19d01;fill-opacity:1;stroke-width:1.0"
      d="m 278.93,414.31 5.37,44.48 7.09,44.27 0.64,59.74 -6.88,58.45 -11.6,64.9 -2.15,32.02 c 5.17,21.78 9.64,43.55 8.6,65.33 l -18.91,114.75 -35.46,-0.64 -5.8,-71.13 c -6.39,-14.77 -10.37,-32.71 -2.58,-66.19 l 5.8,-18.48 -11.6,-39.54 -2.36,-80.59 -6.88,-48.57 c -1.13,-15.74 -2.72,-31.95 -2.79,-46.63 2.88,0.53 5.08,-2.45 3.44,-25.14 l 30.09,-33.09 c 5.28,-11.41 13.64,-22.4 27.51,-32.66 z"
      id="LeftLeg"/>
  <path
      style="fill:#a19d01;fill-opacity:1;stroke-width:1.0"
      d="m 114.11,418.4 -12.03,94.55 c 3.69,93.44 12.55,126.89 20.63,169.34 l 0.86,39.97 c -13.04,38.62 -10.58,75.62 -1.93,111.96 l 12.25,63.39 34.38,0.86 4.3,-68.34 c 6,-15.21 11.63,-31 4.73,-66.4 l -4.3,-24.07 10.53,-34.6 c 0.79,-34.6 1.81,-69.12 4.3,-103.15 2.83,-24.83 5.83,-49.61 6.45,-75 -2.59,-1.05 -4.71,-3.05 -5.59,-7.52 l 0.86,-18.05 -26.22,-27.08 c -2.45,-7.59 -7.88,-15.19 -12.46,-22.78 -18.68,-22.93 -29.49,-31.29 -36.75,-33.09 z"
      id="RightLeg"/>
  <path
      style="fill:#0141a1;fill-opacity:1;stroke-width:1.0"
      d="m 62.96,501.78 6.23,15.9 -1.5,21.7 c 4.12,8.7 6.38,16.79 3.65,23.21 -6.37,3.85 -9.46,1.68 -12.46,-0.64 -1.09,-5.73 -2.53,-11.46 -0.86,-17.19 -4.84,0.61 -4.39,7.56 -0.64,18.48 l 17.19,16.76 c -3.87,3.02 -3.61,6.51 -2.36,10.1 -4.43,-2.22 -11.28,1.84 -11.17,1.29 l -6.02,6.88 c -8.04,-9.03 -16.92,-19.17 -21.7,-23.85 -0.21,-5.66 -1.01,-11.03 -2.36,-16.12 l -4.3,-8.6 c 2.6,-15.95 5.06,-32.05 7.09,-48.57 z"
      id="RightHand"/>
  <path
      style="fill:#0141a1;fill-opacity:1;stroke-width:1.0"
      d="m 364.67,501.56 8.81,46.42 -3.87,6.66 c -1.6,5.76 -2.33,11.35 -1.07,16.55 -21.82,18.2 -20.38,20.13 -26.43,27.29 -4.53,0.23 -3.94,-4.66 -4.73,-8.17 h -6.88 c 0.47,-4.69 -1.34,-8.99 -4.3,-13.11 5.5,-3.25 10.42,-6.16 19.77,-11.6 L 343.4,544.97 l -3.87,16.98 c -3.76,2.08 -6.81,5.47 -14.4,0.43 -0.75,-7.23 -0.78,-14.47 3.01,-21.7 l -1.72,-26.43 5.59,-11.39 z"
      id="LeftHand"/>
  <path
      style="fill:#a1018f;fill-opacity:1;stroke-width:1.0"
      d="m 260.88,898.69 -0.21,26 c 6.91,12.92 13.14,21.1 18.91,26 12.94,5.43 16.69,10.4 18.27,15.26 -4.53,8.36 -16.33,9.46 -27.51,11.17 l -8.6,3.01 -18.05,-4.3 -7.95,-11.6 -9.89,-1.93 -6.23,-8.38 2.79,-12.46 c 0.31,-8.73 0.79,-17.37 0,-26.65 l 2.36,-16.33 z"
      id="LeftFoot" />
  <path
      style="fill:#a1018f;fill-opacity:1;stroke-width:1.0"
      d="m 168.48,899.54 c 1.56,9.96 4.37,19.91 3.87,29.87 l -0.43,10.74 c 1.58,8.06 2.72,15.9 -0.21,21.7 -3.77,2.58 -8.41,2.55 -13.32,1.72 -1.59,3.64 -3.03,7.43 -5.16,10.53 -6.06,4.63 -12.72,5.05 -19.34,5.8 l -6.45,-4.73 -4.3,2.79 -13.75,-1.93 -4.3,-2.79 -5.37,-0.64 c -9.76,-6.64 -4.28,-9.82 -2.15,-13.75 l 15.69,-7.09 c 8.04,-7.05 13.5,-16.02 19.34,-24.71 1.25,-8.6 1.32,-17.98 0.86,-27.72 z"
      id="RightFoot" />
</svg>
